<svg width="100" height="14" viewBox="0 0 100 14" fill="none" xmlns="http://www.w3.org/2000/svg">
<path d="M80.71 12.7L81.11 12.27C80.02 11.16 79.42 9.98 79.42 8.35C79.42 6.71 80.02 5.54 81.11 4.42L80.71 4C79.37 5.12 78.62 6.62 78.62 8.35C78.62 10.07 79.37 11.58 80.71 12.7ZM85.0242 11.12C86.6942 11.12 87.8742 9.65 87.8742 7.56C87.8742 5.48 86.6942 4.01 85.0242 4.01C83.3442 4.01 82.1642 5.48 82.1642 7.56C82.1642 9.65 83.3442 11.12 85.0242 11.12ZM85.0242 10.4C83.8142 10.4 82.9542 9.22 82.9542 7.56C82.9542 5.9 83.8142 4.73 85.0242 4.73C86.2342 4.73 87.0842 5.9 87.0842 7.56C87.0842 9.22 86.2342 10.4 85.0242 10.4ZM89.3288 12.7C90.6688 11.58 91.4188 10.07 91.4188 8.35C91.4188 6.62 90.6688 5.12 89.3288 4L88.9288 4.42C90.0188 5.54 90.6188 6.71 90.6188 8.35C90.6188 9.98 90.0188 11.16 88.9288 12.27L89.3288 12.7Z" fill="#9B9B9B"/>
<path fill-rule="evenodd" clip-rule="evenodd" d="M8 10.9502L4.87713 12.5436C4.50946 12.7313 4.08567 12.4177 4.1575 12.0113L4.75 8.65836L2.25401 6.29695C1.94975 6.00909 2.11307 5.49713 2.52781 5.43864L5.99139 4.95016L7.55431 1.8765C7.73965 1.512 8.26035 1.512 8.44569 1.8765L10.0086 4.95016L13.4722 5.43864C13.8869 5.49713 14.0502 6.00909 13.746 6.29695L11.25 8.65836L11.8425 12.0113C11.9143 12.4177 11.4905 12.7313 11.1229 12.5436L8 10.9502Z" stroke="#9B9B9B" stroke-width="0.5"/>
<path fill-rule="evenodd" clip-rule="evenodd" d="M23 10.9502L19.8771 12.5436C19.5095 12.7313 19.0857 12.4177 19.1575 12.0113L19.75 8.65836L17.254 6.29695C16.9498 6.00909 17.1131 5.49713 17.5278 5.43864L20.9914 4.95016L22.5543 1.8765C22.7397 1.512 23.2603 1.512 23.4457 1.8765L25.0086 4.95016L28.4722 5.43864C28.8869 5.49713 29.0502 6.00909 28.746 6.29695L26.25 8.65836L26.8425 12.0113C26.9143 12.4177 26.4905 12.7313 26.1229 12.5436L23 10.9502Z" stroke="#9B9B9B" stroke-width="0.5"/>
<path fill-rule="evenodd" clip-rule="evenodd" d="M38 10.9502L34.8771 12.5436C34.5095 12.7313 34.0857 12.4177 34.1575 12.0113L34.75 8.65836L32.254 6.29695C31.9498 6.00909 32.1131 5.49713 32.5278 5.43864L35.9914 4.95016L37.5543 1.8765C37.7397 1.512 38.2603 1.512 38.4457 1.8765L40.0086 4.95016L43.4722 5.43864C43.8869 5.49713 44.0502 6.00909 43.746 6.29695L41.25 8.65836L41.8425 12.0113C41.9143 12.4177 41.4905 12.7313 41.1229 12.5436L38 10.9502Z" stroke="#9B9B9B" stroke-width="0.5"/>
<path fill-rule="evenodd" clip-rule="evenodd" d="M53 10.9502L49.8771 12.5436C49.5095 12.7313 49.0857 12.4177 49.1575 12.0113L49.75 8.65836L47.254 6.29695C46.9498 6.00909 47.1131 5.49713 47.5278 5.43864L50.9914 4.95016L52.5543 1.8765C52.7397 1.512 53.2603 1.512 53.4457 1.8765L55.0086 4.95016L58.4722 5.43864C58.8869 5.49713 59.0502 6.00909 58.746 6.29695L56.25 8.65836L56.8425 12.0113C56.9143 12.4177 56.4905 12.7313 56.1229 12.5436L53 10.9502Z" stroke="#9B9B9B" stroke-width="0.5"/>
<path fill-rule="evenodd" clip-rule="evenodd" d="M68 10.9502L64.8771 12.5436C64.5095 12.7313 64.0857 12.4177 64.1575 12.0113L64.75 8.65836L62.254 6.29695C61.9498 6.00909 62.1131 5.49713 62.5278 5.43864L65.9914 4.95016L67.5543 1.8765C67.7397 1.512 68.2603 1.512 68.4457 1.8765L70.0086 4.95016L73.4722 5.43864C73.8869 5.49713 74.0502 6.00909 73.746 6.29695L71.25 8.65836L71.8425 12.0113C71.9143 12.4177 71.4905 12.7313 71.1229 12.5436L68 10.9502Z" stroke="#9B9B9B" stroke-width="0.5"/>
</svg>
