<svg width="131" height="17" viewBox="0 0 131 17" fill="none" xmlns="http://www.w3.org/2000/svg">
<path d="M8.01219 0C7.67074 0 7.32929 0.176717 7.15257 0.533147L5.1967 4.4988L0.820701 5.13378C0.0359567 5.2476 -0.27854 6.21505 0.290549 6.76916L3.45648 9.85423L2.70768 14.2122C2.5729 14.994 3.39658 15.59 4.09746 15.2216L8.01219 13.1669V0Z" fill="#FFC403"/>
<path d="M7.96242 0C8.30387 0 8.64532 0.176717 8.82204 0.533147L10.7779 4.4988L15.1539 5.13378C15.9387 5.2476 16.2531 6.21505 15.6841 6.76916L12.5181 9.85423L13.2669 14.2122C13.4017 14.994 12.578 15.59 11.8772 15.2216L7.96242 13.1669V0Z" fill="#FFC403"/>
<path d="M30.0122 0C29.6707 0 29.3293 0.176717 29.1526 0.533147L27.1967 4.4988L22.8207 5.13378C22.036 5.2476 21.7215 6.21505 22.2905 6.76916L25.4565 9.85423L24.7077 14.2122C24.5729 14.994 25.3966 15.59 26.0975 15.2216L30.0122 13.1669V0Z" fill="#FFC403"/>
<path d="M29.9624 0C30.3039 0 30.6453 0.176717 30.822 0.533147L32.7779 4.4988L37.1539 5.13378C37.9387 5.2476 38.2531 6.21505 37.6841 6.76916L34.5181 9.85423L35.2669 14.2122C35.4017 14.994 34.578 15.59 33.8772 15.2216L29.9624 13.1669V0Z" fill="#FFC403"/>
<path d="M52.0122 0C51.6707 0 51.3293 0.176717 51.1526 0.533147L49.1967 4.4988L44.8207 5.13378C44.036 5.2476 43.7215 6.21505 44.2905 6.76916L47.4565 9.85423L46.7077 14.2122C46.5729 14.994 47.3966 15.59 48.0975 15.2216L52.0122 13.1669V0Z" fill="#FFC403"/>
<path d="M51.9624 0C52.3039 0 52.6453 0.176717 52.822 0.533147L54.7779 4.4988L59.1539 5.13378C59.9387 5.2476 60.2531 6.21505 59.6841 6.76916L56.5181 9.85423L57.2669 14.2122C57.4017 14.994 56.578 15.59 55.8772 15.2216L51.9624 13.1669V0Z" fill="#FFC403"/>
<path d="M74.0122 0C73.6707 0 73.3293 0.176717 73.1526 0.533147L71.1967 4.4988L66.8207 5.13378C66.036 5.2476 65.7215 6.21505 66.2905 6.76916L69.4565 9.85423L68.7077 14.2122C68.5729 14.994 69.3966 15.59 70.0975 15.2216L74.0122 13.1669V0Z" fill="#FFC403"/>
<path d="M76.3295 4.71996L74.4624 0.934361V12.8647L78.1095 14.7789L78.1098 14.7791C78.4454 14.9555 78.8382 14.6685 78.7742 14.2972L78.7741 14.2969L78.0253 9.9389L77.9808 9.67968L78.1692 9.49613L81.3351 6.41107L81.3353 6.41093C81.6075 6.14581 81.4562 5.68286 81.0821 5.6286L81.0821 5.6286L76.7061 4.99362L76.4458 4.95585L76.3295 4.71996Z" stroke="#FFC403"/>
<path d="M95.9752 11.5407L99.6923 13.4992L98.9836 9.3547L101.992 6.42004L97.8352 5.81514L95.9752 2.04201V0.00271606C96.3161 0.00271606 96.657 0.179395 96.8334 0.535746L98.7862 4.50053L103.155 5.13538C103.939 5.24917 104.253 6.21641 103.685 6.7704L100.524 9.85479L101.271 14.2119C101.406 14.9934 100.583 15.5894 99.8837 15.221L95.9752 13.1668V11.5407Z" fill="#FFC403"/>
<path d="M96.01 11.5407L92.288 13.4992L92.9976 9.3547L89.9853 6.42004L94.1475 5.81514L96.01 2.04201V0.00271606C95.6686 0.00271606 95.3273 0.179395 95.1506 0.535746L93.1953 4.50053L88.8205 5.13538C88.0359 5.24917 87.7215 6.21641 88.2905 6.7704L91.4555 9.85479L90.7069 14.2119C90.5722 14.9934 91.3956 15.5894 92.0963 15.221L96.01 13.1668V11.5407Z" fill="#FFC403"/>
<path d="M116.213 13.1582C116.814 13.1582 117.344 13.0527 117.801 12.8418C118.262 12.627 118.623 12.332 118.885 11.957C119.146 11.5781 119.277 11.1465 119.277 10.6621V10.6504C119.277 10.0566 119.088 9.58008 118.709 9.2207C118.33 8.86133 117.83 8.65625 117.209 8.60547V8.57617C117.553 8.50586 117.857 8.38281 118.123 8.20703C118.393 8.02734 118.604 7.80469 118.756 7.53906C118.912 7.26953 118.99 6.95898 118.99 6.60742V6.5957C118.99 6.1582 118.875 5.77539 118.645 5.44727C118.414 5.11523 118.09 4.85547 117.672 4.66797C117.254 4.48047 116.764 4.38672 116.201 4.38672C115.65 4.38672 115.164 4.48633 114.742 4.68555C114.324 4.88086 113.988 5.15625 113.734 5.51172C113.484 5.86328 113.336 6.2793 113.289 6.75977L113.283 6.81836H114.525L114.531 6.76562C114.559 6.49609 114.645 6.26562 114.789 6.07422C114.934 5.87891 115.127 5.72852 115.369 5.62305C115.611 5.51758 115.889 5.46484 116.201 5.46484C116.521 5.46484 116.793 5.51758 117.016 5.62305C117.242 5.72461 117.414 5.87305 117.531 6.06836C117.648 6.25977 117.707 6.49219 117.707 6.76562V6.77734C117.707 7.03906 117.639 7.27148 117.502 7.47461C117.365 7.67773 117.176 7.83789 116.934 7.95508C116.691 8.06836 116.408 8.125 116.084 8.125H115.1V9.15625H116.125C116.688 9.15625 117.131 9.28516 117.455 9.54297C117.779 9.79688 117.941 10.1621 117.941 10.6387V10.6504C117.941 10.9238 117.869 11.168 117.725 11.3828C117.58 11.5938 117.379 11.7598 117.121 11.8809C116.863 11.998 116.561 12.0566 116.213 12.0566C115.689 12.0566 115.264 11.9355 114.936 11.6934C114.607 11.4512 114.422 11.1387 114.379 10.7559L114.373 10.6914H113.107L113.113 10.7676C113.156 11.2324 113.309 11.6445 113.57 12.0039C113.832 12.3633 114.188 12.6465 114.637 12.8535C115.086 13.0566 115.611 13.1582 116.213 13.1582ZM121.492 13.0938C121.738 13.0938 121.943 13.0098 122.107 12.8418C122.271 12.6738 122.354 12.4727 122.354 12.2383C122.354 11.9961 122.271 11.793 122.107 11.6289C121.943 11.4648 121.738 11.3828 121.492 11.3828C121.25 11.3828 121.045 11.4648 120.877 11.6289C120.713 11.793 120.631 11.9961 120.631 12.2383C120.631 12.4727 120.713 12.6738 120.877 12.8418C121.045 13.0098 121.25 13.0938 121.492 13.0938ZM126.854 13.2051C127.451 13.2051 127.977 13.082 128.43 12.8359C128.887 12.5859 129.244 12.2402 129.502 11.7988C129.764 11.3574 129.895 10.8496 129.895 10.2754V10.2637C129.895 9.7207 129.777 9.23828 129.543 8.81641C129.309 8.39453 128.986 8.0625 128.576 7.82031C128.17 7.57812 127.701 7.45703 127.17 7.45703C126.779 7.45703 126.426 7.53516 126.109 7.69141C125.793 7.84766 125.545 8.06836 125.365 8.35352H125.271L125.529 5.6582H129.414V4.54492H124.492L124.07 9.45508H125.207C125.258 9.35742 125.316 9.26953 125.383 9.19141C125.449 9.10938 125.52 9.0332 125.594 8.96289C125.762 8.81055 125.953 8.69727 126.168 8.62305C126.387 8.54492 126.623 8.50586 126.877 8.50586C127.221 8.50586 127.523 8.58203 127.785 8.73438C128.047 8.88281 128.254 9.0918 128.406 9.36133C128.559 9.63086 128.635 9.93945 128.635 10.2871V10.2988C128.635 10.6504 128.559 10.9609 128.406 11.2305C128.258 11.5 128.051 11.7129 127.785 11.8691C127.52 12.0215 127.213 12.0977 126.865 12.0977C126.561 12.0977 126.285 12.0391 126.039 11.9219C125.793 11.8047 125.594 11.6445 125.441 11.4414C125.293 11.2383 125.199 11.0137 125.16 10.7676L125.154 10.7207H123.918L123.924 10.7969C123.967 11.25 124.115 11.6602 124.369 12.0273C124.623 12.3906 124.963 12.6777 125.389 12.8887C125.814 13.0996 126.303 13.2051 126.854 13.2051Z" fill="#FFC403"/>
</svg>
